<svg xmlns="http://www.w3.org/2000/svg" xmlns:xlink="http://www.w3.org/1999/xlink" width="500" zoomAndPan="magnify" viewBox="0 0 375 374.999991" height="300" preserveAspectRatio="xMidYMid meet" version="1.0"><defs><g><g id="id1"/></g><clipPath id="id2"><path d="M 84 38 L 311.253906 38 L 311.253906 237 L 84 237 Z M 84 38 " clip-rule="nonzero"/></clipPath><clipPath id="id3"><path d="M 63.753906 9.277344 L 207 9.277344 L 207 209 L 63.753906 209 Z M 63.753906 9.277344 " clip-rule="nonzero"/></clipPath><clipPath id="id4"><path d="M 159 252 L 292 252 L 292 259.777344 L 159 259.777344 Z M 159 252 " clip-rule="nonzero"/></clipPath></defs><g clip-path="url(#id2)"><path fill="rgb(1.568604%, 42.749023%, 70.979309%)" d="M 229.402344 176.71875 C 321.226562 106.089844 302.035156 45.492188 237.140625 40.242188 C 265.34375 35.40625 289.335938 40.734375 302.085938 57.347656 C 326.703125 89.425781 299.933594 151.375 242.308594 195.695312 C 184.6875 240.019531 118 249.949219 93.359375 217.871094 C 80.605469 201.261719 81.644531 176.667969 93.566406 150.644531 C 67.105469 223.410156 149.109375 238.410156 229.378906 176.695312 Z M 229.402344 176.71875 " fill-opacity="1" fill-rule="evenodd"/></g><path fill="rgb(1.568604%, 42.749023%, 70.979309%)" d="M 161.652344 112.5625 C 163.160156 109.625 168.09375 104.972656 172.300781 103.515625 L 171.753906 101.800781 L 169.730469 95.484375 L 180.660156 91.949219 L 183.363281 100.34375 C 185.542969 99.695312 188.917969 100.1875 190.738281 100.371094 C 193.074219 100.628906 195.175781 101.28125 197.152344 102.292969 C 200.941406 104.242188 204.605469 107.625 206.421875 113.289062 L 194.527344 117.136719 C 193.878906 115.136719 192.605469 113.707031 191.359375 112.796875 C 190.503906 112.171875 187.933594 111.054688 186.816406 111.160156 L 191.671875 126.234375 C 193.386719 125.691406 197.566406 125.691406 199.152344 125.664062 C 201.332031 125.636719 204.164062 125.898438 206.058594 126.445312 C 209.875 127.535156 214.054688 130.8125 215.742188 136.035156 L 216.417969 138.117188 C 218.238281 143.757812 216.601562 148.773438 214.601562 152.492188 C 212.992188 155.457031 207.5625 160.472656 203.203125 161.980469 L 205.148438 168.0625 L 194.214844 171.597656 L 192.21875 165.386719 C 185.335938 166.996094 176.816406 165.488281 171.675781 160.34375 C 170.117188 158.757812 168.378906 156.339844 167.46875 153.507812 L 167.082031 152.285156 L 178.507812 148.59375 C 178.714844 148.515625 182.011719 152.960938 182.765625 153.53125 C 183.90625 154.363281 187.074219 155.457031 188.839844 154.910156 L 183.671875 138.871094 C 182.425781 139.234375 177.855469 139.261719 176.480469 139.234375 C 162.953125 139.105469 155.445312 124.652344 161.601562 112.535156 Z M 235.480469 163.382812 C 227.480469 136.089844 227.6875 97.226562 236.15625 46.820312 L 233.53125 46.609375 C 215.277344 54.589844 181.386719 69.460938 131.84375 91.167969 C 135.398438 137.207031 148.589844 174.042969 171.417969 201.703125 C 190.945312 194.8125 209.617188 183.609375 225.378906 171.496094 C 228.703125 168.949219 232.078125 166.242188 235.480469 163.410156 Z M 235.480469 163.382812 " fill-opacity="1" fill-rule="evenodd"/><g clip-path="url(#id3)"><path fill="rgb(0%, 65.879822%, 87.059021%)" d="M 125.792969 88.464844 C 98.964844 101.019531 125.792969 88.464844 206.265625 50.769531 L 203.617188 26.777344 L 100.808594 76.558594 C 101.25 119.140625 115.84375 157.507812 144.695312 198.972656 C 110.886719 154.804688 93.433594 118.359375 92.527344 72.894531 C 64.609375 86.152344 92.527344 72.894531 176.246094 33.144531 L 172.171875 9.617188 L 63.726562 54.515625 C 67.027344 80.5625 78.972656 113.628906 96.527344 144.746094 L 100.367188 151.375 C 112.9375 172.457031 128.050781 192.316406 144.746094 208.070312 C 146.226562 207.890625 147.683594 207.707031 149.085938 207.472656 C 155.1875 206.484375 161.261719 205.003906 167.289062 203.054688 C 144.59375 177.761719 130.257812 141.132812 125.765625 88.464844 Z M 125.792969 88.464844 " fill-opacity="1" fill-rule="evenodd"/></g><path fill="rgb(1.568604%, 42.749023%, 70.979309%)" d="M 171.832031 117.476562 C 169.703125 120.648438 171.183594 125.378906 174.765625 126.652344 C 175.570312 126.9375 178.84375 127.222656 179.882812 126.988281 L 175.675781 113.992188 C 174.558594 114.460938 172.378906 116.667969 171.804688 117.5 Z M 171.832031 117.476562 " fill-opacity="1" fill-rule="evenodd"/><path fill="rgb(1.568604%, 42.749023%, 70.979309%)" d="M 195.488281 137.910156 L 199.929688 151.632812 C 201.929688 150.933594 203.203125 149.113281 204.136719 147.8125 C 205.070312 146.511719 205.410156 144.148438 204.734375 142.042969 L 204.628906 141.679688 C 203.539062 138.296875 198.554688 137.648438 195.488281 137.910156 Z M 195.488281 137.910156 " fill-opacity="1" fill-rule="evenodd"/><path fill="rgb(0%, 65.879822%, 87.059021%)" d="M 246.359375 200.949219 C 232.597656 211.527344 217.042969 221.148438 200.65625 228.554688 C 202.992188 230.195312 205.410156 231.78125 207.875 233.289062 C 205.097656 231.933594 202.371094 230.480469 199.722656 228.972656 C 194.582031 231.257812 189.335938 233.339844 184.039062 235.160156 C 215.226562 248.859375 248.90625 244.984375 280.585938 209.839844 C 269.808594 207.421875 260.746094 202.585938 253.398438 195.359375 C 251.085938 197.28125 248.75 199.15625 246.386719 200.972656 Z M 246.359375 200.949219 " fill-opacity="1" fill-rule="evenodd"/><g clip-path="url(#id4)"><path fill="rgb(82.348633%, 82.749939%, 83.529663%)" d="M 225.328125 259.4375 C 261.914062 259.4375 291.597656 257.929688 291.597656 256.035156 C 291.597656 254.160156 261.914062 252.652344 225.328125 252.652344 C 188.738281 252.652344 159.082031 254.160156 159.082031 256.035156 C 159.082031 257.90625 188.761719 259.4375 225.328125 259.4375 Z M 225.328125 259.4375 " fill-opacity="1" fill-rule="evenodd"/></g><path fill="rgb(25.878906%, 72.938538%, 88.238525%)" d="M 161.339844 83.316406 C 153.316406 86.828125 145.292969 90.335938 137.269531 93.871094 C 137.96875 103.152344 139.140625 112.433594 140.800781 121.714844 C 140.878906 109.753906 141.632812 101.488281 143.058594 96.886719 C 147.292969 92.335938 153.371094 87.816406 161.339844 83.34375 Z M 161.339844 83.316406 " fill-opacity="1" fill-rule="evenodd"/><g fill="rgb(1.568604%, 42.749023%, 70.979309%)" fill-opacity="1"><g transform="translate(23.950415, 332.251191)"><g><path d="M 33.296875 -45.03125 L 33.296875 -36.25 L 14.953125 -36.25 L 14.953125 -26.75 L 28.671875 -26.75 L 28.671875 -18.21875 L 14.953125 -18.21875 L 14.953125 0 L 3.984375 0 L 3.984375 -45.03125 Z M 33.296875 -45.03125 "/></g></g></g><g fill="rgb(1.568604%, 42.749023%, 70.979309%)" fill-opacity="1"><g transform="translate(57.425449, 332.251191)"><g><path d="M 9.5 -39.515625 C 7.570312 -39.515625 6 -40.082031 4.78125 -41.21875 C 3.5625 -42.351562 2.953125 -43.753906 2.953125 -45.421875 C 2.953125 -47.128906 3.5625 -48.550781 4.78125 -49.6875 C 6 -50.820312 7.570312 -51.390625 9.5 -51.390625 C 11.375 -51.390625 12.921875 -50.820312 14.140625 -49.6875 C 15.359375 -48.550781 15.96875 -47.128906 15.96875 -45.421875 C 15.96875 -43.753906 15.359375 -42.351562 14.140625 -41.21875 C 12.921875 -40.082031 11.375 -39.515625 9.5 -39.515625 Z M 14.953125 -35.796875 L 14.953125 0 L 3.984375 0 L 3.984375 -35.796875 Z M 14.953125 -35.796875 "/></g></g></g><g fill="rgb(1.568604%, 42.749023%, 70.979309%)" fill-opacity="1"><g transform="translate(74.739691, 332.251191)"><g><path d="M 25.796875 -36.1875 C 29.984375 -36.1875 33.328125 -34.828125 35.828125 -32.109375 C 38.328125 -29.390625 39.578125 -25.660156 39.578125 -20.921875 L 39.578125 0 L 28.671875 0 L 28.671875 -19.4375 C 28.671875 -21.832031 28.050781 -23.691406 26.8125 -25.015625 C 25.570312 -26.347656 23.90625 -27.015625 21.8125 -27.015625 C 19.71875 -27.015625 18.050781 -26.347656 16.8125 -25.015625 C 15.570312 -23.691406 14.953125 -21.832031 14.953125 -19.4375 L 14.953125 0 L 3.984375 0 L 3.984375 -35.796875 L 14.953125 -35.796875 L 14.953125 -31.046875 C 16.054688 -32.628906 17.550781 -33.878906 19.4375 -34.796875 C 21.320312 -35.722656 23.441406 -36.1875 25.796875 -36.1875 Z M 25.796875 -36.1875 "/></g></g></g><g fill="rgb(1.568604%, 42.749023%, 70.979309%)" fill-opacity="1"><g transform="translate(116.359277, 332.251191)"><g><path d="M 1.796875 -17.96875 C 1.796875 -21.644531 2.488281 -24.875 3.875 -27.65625 C 5.269531 -30.4375 7.164062 -32.570312 9.5625 -34.0625 C 11.957031 -35.5625 14.628906 -36.3125 17.578125 -36.3125 C 20.097656 -36.3125 22.3125 -35.796875 24.21875 -34.765625 C 26.125 -33.742188 27.585938 -32.398438 28.609375 -30.734375 L 28.609375 -35.796875 L 39.578125 -35.796875 L 39.578125 0 L 28.609375 0 L 28.609375 -5.0625 C 27.546875 -3.394531 26.0625 -2.046875 24.15625 -1.015625 C 22.25 0.00390625 20.035156 0.515625 17.515625 0.515625 C 14.609375 0.515625 11.957031 -0.242188 9.5625 -1.765625 C 7.164062 -3.285156 5.269531 -5.445312 3.875 -8.25 C 2.488281 -11.050781 1.796875 -14.289062 1.796875 -17.96875 Z M 28.609375 -17.90625 C 28.609375 -20.632812 27.847656 -22.789062 26.328125 -24.375 C 24.816406 -25.957031 22.96875 -26.75 20.78125 -26.75 C 18.601562 -26.75 16.753906 -25.96875 15.234375 -24.40625 C 13.710938 -22.84375 12.953125 -20.695312 12.953125 -17.96875 C 12.953125 -15.226562 13.710938 -13.054688 15.234375 -11.453125 C 16.753906 -9.847656 18.601562 -9.046875 20.78125 -9.046875 C 22.96875 -9.046875 24.816406 -9.835938 26.328125 -11.421875 C 27.847656 -13.003906 28.609375 -15.164062 28.609375 -17.90625 Z M 28.609375 -17.90625 "/></g></g></g><g fill="rgb(1.568604%, 42.749023%, 70.979309%)" fill-opacity="1"><g transform="translate(158.299507, 332.251191)"><g><path d="M 14.953125 -30.734375 C 16.015625 -32.398438 17.488281 -33.742188 19.375 -34.765625 C 21.257812 -35.796875 23.460938 -36.3125 25.984375 -36.3125 C 28.929688 -36.3125 31.601562 -35.5625 34 -34.0625 C 36.394531 -32.570312 38.285156 -30.4375 39.671875 -27.65625 C 41.066406 -24.875 41.765625 -21.644531 41.765625 -17.96875 C 41.765625 -14.289062 41.066406 -11.050781 39.671875 -8.25 C 38.285156 -5.445312 36.394531 -3.285156 34 -1.765625 C 31.601562 -0.242188 28.929688 0.515625 25.984375 0.515625 C 23.503906 0.515625 21.3125 0.00390625 19.40625 -1.015625 C 17.5 -2.046875 16.015625 -3.375 14.953125 -5 L 14.953125 17.0625 L 3.984375 17.0625 L 3.984375 -35.796875 L 14.953125 -35.796875 Z M 30.609375 -17.96875 C 30.609375 -20.695312 29.847656 -22.84375 28.328125 -24.40625 C 26.804688 -25.96875 24.9375 -26.75 22.71875 -26.75 C 20.53125 -26.75 18.675781 -25.957031 17.15625 -24.375 C 15.644531 -22.789062 14.890625 -20.632812 14.890625 -17.90625 C 14.890625 -15.164062 15.644531 -13.003906 17.15625 -11.421875 C 18.675781 -9.835938 20.53125 -9.046875 22.71875 -9.046875 C 24.894531 -9.046875 26.753906 -9.847656 28.296875 -11.453125 C 29.835938 -13.054688 30.609375 -15.226562 30.609375 -17.96875 Z M 30.609375 -17.96875 "/></g></g></g><g fill="rgb(1.568604%, 42.749023%, 70.979309%)" fill-opacity="1"><g transform="translate(200.239738, 332.251191)"><g><path d="M 14.953125 -30.734375 C 16.015625 -32.398438 17.488281 -33.742188 19.375 -34.765625 C 21.257812 -35.796875 23.460938 -36.3125 25.984375 -36.3125 C 28.929688 -36.3125 31.601562 -35.5625 34 -34.0625 C 36.394531 -32.570312 38.285156 -30.4375 39.671875 -27.65625 C 41.066406 -24.875 41.765625 -21.644531 41.765625 -17.96875 C 41.765625 -14.289062 41.066406 -11.050781 39.671875 -8.25 C 38.285156 -5.445312 36.394531 -3.285156 34 -1.765625 C 31.601562 -0.242188 28.929688 0.515625 25.984375 0.515625 C 23.503906 0.515625 21.3125 0.00390625 19.40625 -1.015625 C 17.5 -2.046875 16.015625 -3.375 14.953125 -5 L 14.953125 17.0625 L 3.984375 17.0625 L 3.984375 -35.796875 L 14.953125 -35.796875 Z M 30.609375 -17.96875 C 30.609375 -20.695312 29.847656 -22.84375 28.328125 -24.40625 C 26.804688 -25.96875 24.9375 -26.75 22.71875 -26.75 C 20.53125 -26.75 18.675781 -25.957031 17.15625 -24.375 C 15.644531 -22.789062 14.890625 -20.632812 14.890625 -17.90625 C 14.890625 -15.164062 15.644531 -13.003906 17.15625 -11.421875 C 18.675781 -9.835938 20.53125 -9.046875 22.71875 -9.046875 C 24.894531 -9.046875 26.753906 -9.847656 28.296875 -11.453125 C 29.835938 -13.054688 30.609375 -15.226562 30.609375 -17.96875 Z M 30.609375 -17.96875 "/></g></g></g><g fill="rgb(1.568604%, 42.749023%, 70.979309%)" fill-opacity="1"><g transform="translate(242.17998, 332.251191)"><g><path d="M 18.546875 0.515625 C 15.421875 0.515625 12.640625 -0.015625 10.203125 -1.078125 C 7.765625 -2.148438 5.835938 -3.617188 4.421875 -5.484375 C 3.015625 -7.347656 2.222656 -9.429688 2.046875 -11.734375 L 12.890625 -11.734375 C 13.023438 -10.492188 13.601562 -9.488281 14.625 -8.71875 C 15.65625 -7.957031 16.914062 -7.578125 18.40625 -7.578125 C 19.78125 -7.578125 20.84375 -7.84375 21.59375 -8.375 C 22.34375 -8.90625 22.71875 -9.597656 22.71875 -10.453125 C 22.71875 -11.484375 22.179688 -12.242188 21.109375 -12.734375 C 20.035156 -13.222656 18.300781 -13.769531 15.90625 -14.375 C 13.34375 -14.96875 11.203125 -15.597656 9.484375 -16.265625 C 7.773438 -16.929688 6.300781 -17.976562 5.0625 -19.40625 C 3.820312 -20.84375 3.203125 -22.78125 3.203125 -25.21875 C 3.203125 -27.269531 3.769531 -29.140625 4.90625 -30.828125 C 6.039062 -32.515625 7.707031 -33.847656 9.90625 -34.828125 C 12.113281 -35.816406 14.734375 -36.3125 17.765625 -36.3125 C 22.253906 -36.3125 25.789062 -35.195312 28.375 -32.96875 C 30.96875 -30.75 32.457031 -27.800781 32.84375 -24.125 L 22.71875 -24.125 C 22.539062 -25.363281 21.992188 -26.347656 21.078125 -27.078125 C 20.160156 -27.804688 18.953125 -28.171875 17.453125 -28.171875 C 16.171875 -28.171875 15.1875 -27.921875 14.5 -27.421875 C 13.8125 -26.929688 13.46875 -26.257812 13.46875 -25.40625 C 13.46875 -24.375 14.015625 -23.601562 15.109375 -23.09375 C 16.203125 -22.582031 17.898438 -22.070312 20.203125 -21.5625 C 22.859375 -20.875 25.019531 -20.195312 26.6875 -19.53125 C 28.351562 -18.875 29.816406 -17.804688 31.078125 -16.328125 C 32.335938 -14.847656 32.992188 -12.867188 33.046875 -10.390625 C 33.046875 -8.296875 32.457031 -6.425781 31.28125 -4.78125 C 30.101562 -3.132812 28.410156 -1.835938 26.203125 -0.890625 C 24.003906 0.046875 21.453125 0.515625 18.546875 0.515625 Z M 18.546875 0.515625 "/></g></g></g><g fill="rgb(1.568604%, 42.749023%, 70.979309%)" fill-opacity="1"><g transform="translate(276.360465, 332.251191)"><g><path d="M 40.546875 -35.796875 L 18.09375 17 L 6.28125 17 L 14.5 -1.21875 L -0.0625 -35.796875 L 12.1875 -35.796875 L 20.46875 -13.40625 L 28.671875 -35.796875 Z M 40.546875 -35.796875 "/></g></g></g><g fill="rgb(1.568604%, 42.749023%, 70.979309%)" fill-opacity="1"><g transform="translate(315.28658, 332.251191)"><g><path d="M 18.546875 0.515625 C 15.421875 0.515625 12.640625 -0.015625 10.203125 -1.078125 C 7.765625 -2.148438 5.835938 -3.617188 4.421875 -5.484375 C 3.015625 -7.347656 2.222656 -9.429688 2.046875 -11.734375 L 12.890625 -11.734375 C 13.023438 -10.492188 13.601562 -9.488281 14.625 -8.71875 C 15.65625 -7.957031 16.914062 -7.578125 18.40625 -7.578125 C 19.78125 -7.578125 20.84375 -7.84375 21.59375 -8.375 C 22.34375 -8.90625 22.71875 -9.597656 22.71875 -10.453125 C 22.71875 -11.484375 22.179688 -12.242188 21.109375 -12.734375 C 20.035156 -13.222656 18.300781 -13.769531 15.90625 -14.375 C 13.34375 -14.96875 11.203125 -15.597656 9.484375 -16.265625 C 7.773438 -16.929688 6.300781 -17.976562 5.0625 -19.40625 C 3.820312 -20.84375 3.203125 -22.78125 3.203125 -25.21875 C 3.203125 -27.269531 3.769531 -29.140625 4.90625 -30.828125 C 6.039062 -32.515625 7.707031 -33.847656 9.90625 -34.828125 C 12.113281 -35.816406 14.734375 -36.3125 17.765625 -36.3125 C 22.253906 -36.3125 25.789062 -35.195312 28.375 -32.96875 C 30.96875 -30.75 32.457031 -27.800781 32.84375 -24.125 L 22.71875 -24.125 C 22.539062 -25.363281 21.992188 -26.347656 21.078125 -27.078125 C 20.160156 -27.804688 18.953125 -28.171875 17.453125 -28.171875 C 16.171875 -28.171875 15.1875 -27.921875 14.5 -27.421875 C 13.8125 -26.929688 13.46875 -26.257812 13.46875 -25.40625 C 13.46875 -24.375 14.015625 -23.601562 15.109375 -23.09375 C 16.203125 -22.582031 17.898438 -22.070312 20.203125 -21.5625 C 22.859375 -20.875 25.019531 -20.195312 26.6875 -19.53125 C 28.351562 -18.875 29.816406 -17.804688 31.078125 -16.328125 C 32.335938 -14.847656 32.992188 -12.867188 33.046875 -10.390625 C 33.046875 -8.296875 32.457031 -6.425781 31.28125 -4.78125 C 30.101562 -3.132812 28.410156 -1.835938 26.203125 -0.890625 C 24.003906 0.046875 21.453125 0.515625 18.546875 0.515625 Z M 18.546875 0.515625 "/></g></g></g></svg>