<svg xmlns="http://www.w3.org/2000/svg" xmlns:xlink="http://www.w3.org/1999/xlink" width="500" zoomAndPan="magnify" viewBox="0 0 375 374.999991" height="500" preserveAspectRatio="xMidYMid meet" version="1.0"><defs><g><g id="id1"/></g><clipPath id="id2"><path d="M 138 111 L 246.253906 111 L 246.253906 207 L 138 207 Z M 138 111 " clip-rule="nonzero"/></clipPath><clipPath id="id3"><path d="M 128.503906 98 L 197 98 L 197 193 L 128.503906 193 Z M 128.503906 98 " clip-rule="nonzero"/></clipPath></defs><g clip-path="url(#id2)"><path fill="rgb(1.568604%, 42.749023%, 70.979309%)" d="M 207.3125 177.570312 C 251 143.945312 241.867188 115.097656 210.996094 112.597656 C 224.410156 110.296875 235.828125 112.835938 241.894531 120.742188 C 253.605469 136.011719 240.867188 165.503906 213.453125 186.605469 C 186.039062 207.703125 154.3125 212.429688 142.589844 197.160156 C 136.523438 189.253906 137.015625 177.546875 142.6875 165.15625 C 130.097656 199.796875 169.113281 206.9375 207.300781 177.558594 Z M 207.3125 177.570312 " fill-opacity="1" fill-rule="evenodd"/></g><path fill="rgb(1.568604%, 42.749023%, 70.979309%)" d="M 175.082031 147.027344 C 175.796875 145.628906 178.144531 143.414062 180.144531 142.722656 L 179.886719 141.902344 L 178.921875 138.898438 L 184.125 137.214844 L 185.410156 141.210938 C 186.445312 140.902344 188.050781 141.136719 188.917969 141.222656 C 190.027344 141.347656 191.03125 141.65625 191.96875 142.140625 C 193.773438 143.066406 195.515625 144.675781 196.378906 147.375 L 190.722656 149.207031 C 190.410156 148.253906 189.804688 147.570312 189.214844 147.140625 C 188.804688 146.84375 187.582031 146.308594 187.050781 146.359375 L 189.363281 153.535156 C 190.175781 153.277344 192.167969 153.277344 192.921875 153.265625 C 193.957031 153.253906 195.304688 153.375 196.207031 153.636719 C 198.023438 154.15625 200.011719 155.714844 200.8125 158.203125 L 201.136719 159.191406 C 202 161.878906 201.222656 164.265625 200.269531 166.035156 C 199.503906 167.445312 196.921875 169.835938 194.847656 170.554688 L 195.773438 173.449219 L 190.574219 175.132812 L 189.621094 172.175781 C 186.347656 172.941406 182.296875 172.222656 179.847656 169.773438 C 179.109375 169.019531 178.28125 167.867188 177.847656 166.519531 L 177.664062 165.9375 L 183.097656 164.179688 C 183.195312 164.144531 184.765625 166.257812 185.125 166.53125 C 185.667969 166.925781 187.175781 167.445312 188.015625 167.1875 L 185.558594 159.550781 C 184.964844 159.726562 182.789062 159.738281 182.132812 159.726562 C 175.699219 159.664062 172.128906 152.78125 175.054688 147.015625 Z M 210.203125 171.222656 C 206.398438 158.226562 206.496094 139.726562 210.523438 115.730469 L 209.277344 115.632812 C 200.59375 119.429688 184.46875 126.507812 160.898438 136.84375 C 162.589844 158.757812 168.867188 176.296875 179.726562 189.460938 C 189.015625 186.183594 197.898438 180.847656 205.398438 175.082031 C 206.980469 173.871094 208.585938 172.582031 210.203125 171.234375 Z M 210.203125 171.222656 " fill-opacity="1" fill-rule="evenodd"/><g clip-path="url(#id3)"><path fill="rgb(0%, 65.879822%, 87.059021%)" d="M 158.019531 135.554688 C 145.257812 141.53125 158.019531 135.554688 196.304688 117.609375 L 195.042969 106.1875 L 146.132812 129.886719 C 146.34375 150.160156 153.285156 168.425781 167.011719 188.164062 C 150.925781 167.136719 142.625 149.789062 142.191406 128.144531 C 128.910156 134.453125 142.191406 128.144531 182.023438 109.222656 L 180.082031 98.019531 L 128.492188 119.394531 C 130.0625 131.792969 135.742188 147.535156 144.09375 162.347656 L 145.921875 165.503906 C 151.902344 175.539062 159.09375 184.996094 167.039062 192.496094 C 167.742188 192.40625 168.433594 192.320312 169.101562 192.210938 C 172.003906 191.738281 174.894531 191.035156 177.761719 190.105469 C 166.964844 178.066406 160.144531 160.628906 158.007812 135.554688 Z M 158.019531 135.554688 " fill-opacity="1" fill-rule="evenodd"/></g><path fill="rgb(1.568604%, 42.749023%, 70.979309%)" d="M 179.921875 149.367188 C 178.910156 150.875 179.613281 153.128906 181.320312 153.734375 C 181.703125 153.871094 183.257812 154.007812 183.753906 153.894531 L 181.75 147.707031 C 181.21875 147.929688 180.183594 148.984375 179.910156 149.378906 Z M 179.921875 149.367188 " fill-opacity="1" fill-rule="evenodd"/><path fill="rgb(1.568604%, 42.749023%, 70.979309%)" d="M 191.179688 159.09375 L 193.289062 165.628906 C 194.242188 165.292969 194.847656 164.425781 195.292969 163.808594 C 195.738281 163.191406 195.898438 162.0625 195.574219 161.0625 L 195.527344 160.886719 C 195.007812 159.277344 192.636719 158.96875 191.179688 159.09375 Z M 191.179688 159.09375 " fill-opacity="1" fill-rule="evenodd"/><path fill="rgb(0%, 65.879822%, 87.059021%)" d="M 215.378906 189.105469 C 208.832031 194.140625 201.433594 198.71875 193.636719 202.246094 C 194.75 203.027344 195.898438 203.78125 197.070312 204.5 C 195.75 203.855469 194.453125 203.164062 193.191406 202.445312 C 190.746094 203.535156 188.25 204.523438 185.730469 205.390625 C 200.566406 211.910156 216.589844 210.066406 231.664062 193.335938 C 226.535156 192.183594 222.226562 189.882812 218.726562 186.441406 C 217.628906 187.359375 216.515625 188.25 215.394531 189.117188 Z M 215.378906 189.105469 " fill-opacity="1" fill-rule="evenodd"/><path fill="rgb(82.348633%, 82.749939%, 83.529663%)" d="M 205.375 216.949219 C 222.78125 216.949219 236.902344 216.230469 236.902344 215.328125 C 236.902344 214.4375 222.78125 213.71875 205.375 213.71875 C 187.964844 213.71875 173.855469 214.4375 173.855469 215.328125 C 173.855469 216.21875 187.976562 216.949219 205.375 216.949219 Z M 205.375 216.949219 " fill-opacity="1" fill-rule="evenodd"/><path fill="rgb(25.878906%, 72.938538%, 88.238525%)" d="M 174.933594 133.105469 C 171.113281 134.777344 167.296875 136.445312 163.480469 138.128906 C 163.8125 142.546875 164.367188 146.964844 165.160156 151.382812 C 165.195312 145.691406 165.554688 141.753906 166.234375 139.566406 C 168.25 137.398438 171.140625 135.246094 174.933594 133.117188 Z M 174.933594 133.105469 " fill-opacity="1" fill-rule="evenodd"/><g fill="rgb(1.568604%, 42.749023%, 70.979309%)" fill-opacity="1"><g transform="translate(109.527543, 251.83705)"><g><path d="M 15.875 -21.46875 L 15.875 -17.28125 L 7.125 -17.28125 L 7.125 -12.75 L 13.671875 -12.75 L 13.671875 -8.6875 L 7.125 -8.6875 L 7.125 0 L 1.890625 0 L 1.890625 -21.46875 Z M 15.875 -21.46875 "/></g></g></g><g fill="rgb(1.568604%, 42.749023%, 70.979309%)" fill-opacity="1"><g transform="translate(125.486804, 251.83705)"><g><path d="M 4.53125 -18.84375 C 3.613281 -18.84375 2.863281 -19.109375 2.28125 -19.640625 C 1.695312 -20.179688 1.40625 -20.851562 1.40625 -21.65625 C 1.40625 -22.46875 1.695312 -23.144531 2.28125 -23.6875 C 2.863281 -24.226562 3.613281 -24.5 4.53125 -24.5 C 5.425781 -24.5 6.160156 -24.226562 6.734375 -23.6875 C 7.316406 -23.144531 7.609375 -22.46875 7.609375 -21.65625 C 7.609375 -20.851562 7.316406 -20.179688 6.734375 -19.640625 C 6.160156 -19.109375 5.425781 -18.84375 4.53125 -18.84375 Z M 7.125 -17.0625 L 7.125 0 L 1.890625 0 L 1.890625 -17.0625 Z M 7.125 -17.0625 "/></g></g></g><g fill="rgb(1.568604%, 42.749023%, 70.979309%)" fill-opacity="1"><g transform="translate(133.741388, 251.83705)"><g><path d="M 12.296875 -17.25 C 14.296875 -17.25 15.890625 -16.597656 17.078125 -15.296875 C 18.265625 -14.003906 18.859375 -12.226562 18.859375 -9.96875 L 18.859375 0 L 13.671875 0 L 13.671875 -9.265625 C 13.671875 -10.410156 13.375 -11.296875 12.78125 -11.921875 C 12.1875 -12.554688 11.390625 -12.875 10.390625 -12.875 C 9.390625 -12.875 8.59375 -12.554688 8 -11.921875 C 7.414062 -11.296875 7.125 -10.410156 7.125 -9.265625 L 7.125 0 L 1.890625 0 L 1.890625 -17.0625 L 7.125 -17.0625 L 7.125 -14.796875 C 7.65625 -15.554688 8.367188 -16.15625 9.265625 -16.59375 C 10.160156 -17.03125 11.171875 -17.25 12.296875 -17.25 Z M 12.296875 -17.25 "/></g></g></g><g fill="rgb(1.568604%, 42.749023%, 70.979309%)" fill-opacity="1"><g transform="translate(153.583573, 251.83705)"><g><path d="M 0.859375 -8.5625 C 0.859375 -10.3125 1.1875 -11.847656 1.84375 -13.171875 C 2.507812 -14.503906 3.410156 -15.523438 4.546875 -16.234375 C 5.691406 -16.953125 6.96875 -17.3125 8.375 -17.3125 C 9.582031 -17.3125 10.640625 -17.066406 11.546875 -16.578125 C 12.453125 -16.085938 13.148438 -15.441406 13.640625 -14.640625 L 13.640625 -17.0625 L 18.859375 -17.0625 L 18.859375 0 L 13.640625 0 L 13.640625 -2.421875 C 13.128906 -1.617188 12.421875 -0.972656 11.515625 -0.484375 C 10.609375 0.00390625 9.550781 0.25 8.34375 0.25 C 6.957031 0.25 5.691406 -0.109375 4.546875 -0.828125 C 3.410156 -1.554688 2.507812 -2.585938 1.84375 -3.921875 C 1.1875 -5.265625 0.859375 -6.8125 0.859375 -8.5625 Z M 13.640625 -8.53125 C 13.640625 -9.832031 13.273438 -10.859375 12.546875 -11.609375 C 11.828125 -12.367188 10.945312 -12.75 9.90625 -12.75 C 8.863281 -12.75 7.976562 -12.375 7.25 -11.625 C 6.53125 -10.882812 6.171875 -9.863281 6.171875 -8.5625 C 6.171875 -7.257812 6.53125 -6.222656 7.25 -5.453125 C 7.976562 -4.691406 8.863281 -4.3125 9.90625 -4.3125 C 10.945312 -4.3125 11.828125 -4.6875 12.546875 -5.4375 C 13.273438 -6.195312 13.640625 -7.226562 13.640625 -8.53125 Z M 13.640625 -8.53125 "/></g></g></g><g fill="rgb(1.568604%, 42.749023%, 70.979309%)" fill-opacity="1"><g transform="translate(173.578626, 251.83705)"><g><path d="M 7.125 -14.640625 C 7.632812 -15.441406 8.335938 -16.085938 9.234375 -16.578125 C 10.128906 -17.066406 11.179688 -17.3125 12.390625 -17.3125 C 13.796875 -17.3125 15.066406 -16.953125 16.203125 -16.234375 C 17.347656 -15.523438 18.25 -14.503906 18.90625 -13.171875 C 19.570312 -11.847656 19.90625 -10.3125 19.90625 -8.5625 C 19.90625 -6.8125 19.570312 -5.265625 18.90625 -3.921875 C 18.25 -2.585938 17.347656 -1.554688 16.203125 -0.828125 C 15.066406 -0.109375 13.796875 0.25 12.390625 0.25 C 11.203125 0.25 10.15625 0.00390625 9.25 -0.484375 C 8.34375 -0.972656 7.632812 -1.609375 7.125 -2.390625 L 7.125 8.140625 L 1.890625 8.140625 L 1.890625 -17.0625 L 7.125 -17.0625 Z M 14.578125 -8.5625 C 14.578125 -9.863281 14.21875 -10.882812 13.5 -11.625 C 12.78125 -12.375 11.890625 -12.75 10.828125 -12.75 C 9.785156 -12.75 8.898438 -12.367188 8.171875 -11.609375 C 7.453125 -10.859375 7.09375 -9.832031 7.09375 -8.53125 C 7.09375 -7.226562 7.453125 -6.195312 8.171875 -5.4375 C 8.898438 -4.6875 9.785156 -4.3125 10.828125 -4.3125 C 11.867188 -4.3125 12.753906 -4.691406 13.484375 -5.453125 C 14.210938 -6.222656 14.578125 -7.257812 14.578125 -8.5625 Z M 14.578125 -8.5625 "/></g></g></g><g fill="rgb(1.568604%, 42.749023%, 70.979309%)" fill-opacity="1"><g transform="translate(193.573679, 251.83705)"><g><path d="M 7.125 -14.640625 C 7.632812 -15.441406 8.335938 -16.085938 9.234375 -16.578125 C 10.128906 -17.066406 11.179688 -17.3125 12.390625 -17.3125 C 13.796875 -17.3125 15.066406 -16.953125 16.203125 -16.234375 C 17.347656 -15.523438 18.25 -14.503906 18.90625 -13.171875 C 19.570312 -11.847656 19.90625 -10.3125 19.90625 -8.5625 C 19.90625 -6.8125 19.570312 -5.265625 18.90625 -3.921875 C 18.25 -2.585938 17.347656 -1.554688 16.203125 -0.828125 C 15.066406 -0.109375 13.796875 0.25 12.390625 0.25 C 11.203125 0.25 10.15625 0.00390625 9.25 -0.484375 C 8.34375 -0.972656 7.632812 -1.609375 7.125 -2.390625 L 7.125 8.140625 L 1.890625 8.140625 L 1.890625 -17.0625 L 7.125 -17.0625 Z M 14.578125 -8.5625 C 14.578125 -9.863281 14.21875 -10.882812 13.5 -11.625 C 12.78125 -12.375 11.890625 -12.75 10.828125 -12.75 C 9.785156 -12.75 8.898438 -12.367188 8.171875 -11.609375 C 7.453125 -10.859375 7.09375 -9.832031 7.09375 -8.53125 C 7.09375 -7.226562 7.453125 -6.195312 8.171875 -5.4375 C 8.898438 -4.6875 9.785156 -4.3125 10.828125 -4.3125 C 11.867188 -4.3125 12.753906 -4.691406 13.484375 -5.453125 C 14.210938 -6.222656 14.578125 -7.257812 14.578125 -8.5625 Z M 14.578125 -8.5625 "/></g></g></g><g fill="rgb(1.568604%, 42.749023%, 70.979309%)" fill-opacity="1"><g transform="translate(213.568737, 251.83705)"><g><path d="M 8.84375 0.25 C 7.351562 0.25 6.023438 -0.00390625 4.859375 -0.515625 C 3.703125 -1.023438 2.785156 -1.722656 2.109375 -2.609375 C 1.429688 -3.492188 1.054688 -4.488281 0.984375 -5.59375 L 6.140625 -5.59375 C 6.203125 -5 6.476562 -4.519531 6.96875 -4.15625 C 7.457031 -3.789062 8.0625 -3.609375 8.78125 -3.609375 C 9.425781 -3.609375 9.925781 -3.734375 10.28125 -3.984375 C 10.644531 -4.242188 10.828125 -4.578125 10.828125 -4.984375 C 10.828125 -5.472656 10.570312 -5.832031 10.0625 -6.0625 C 9.550781 -6.300781 8.722656 -6.5625 7.578125 -6.84375 C 6.359375 -7.132812 5.335938 -7.4375 4.515625 -7.75 C 3.703125 -8.0625 3 -8.5625 2.40625 -9.25 C 1.820312 -9.9375 1.53125 -10.859375 1.53125 -12.015625 C 1.53125 -12.992188 1.800781 -13.882812 2.34375 -14.6875 C 2.882812 -15.5 3.675781 -16.140625 4.71875 -16.609375 C 5.769531 -17.078125 7.019531 -17.3125 8.46875 -17.3125 C 10.613281 -17.3125 12.300781 -16.78125 13.53125 -15.71875 C 14.757812 -14.65625 15.46875 -13.25 15.65625 -11.5 L 10.828125 -11.5 C 10.742188 -12.09375 10.484375 -12.5625 10.046875 -12.90625 C 9.609375 -13.25 9.03125 -13.421875 8.3125 -13.421875 C 7.707031 -13.421875 7.238281 -13.300781 6.90625 -13.0625 C 6.582031 -12.832031 6.421875 -12.515625 6.421875 -12.109375 C 6.421875 -11.617188 6.679688 -11.25 7.203125 -11 C 7.722656 -10.757812 8.53125 -10.519531 9.625 -10.28125 C 10.894531 -9.945312 11.925781 -9.625 12.71875 -9.3125 C 13.507812 -9 14.207031 -8.488281 14.8125 -7.78125 C 15.414062 -7.082031 15.726562 -6.140625 15.75 -4.953125 C 15.75 -3.953125 15.46875 -3.054688 14.90625 -2.265625 C 14.34375 -1.484375 13.535156 -0.867188 12.484375 -0.421875 C 11.441406 0.0234375 10.226562 0.25 8.84375 0.25 Z M 8.84375 0.25 "/></g></g></g><g fill="rgb(1.568604%, 42.749023%, 70.979309%)" fill-opacity="1"><g transform="translate(229.864322, 251.83705)"><g><path d="M 19.328125 -17.0625 L 8.625 8.109375 L 3 8.109375 L 6.90625 -0.578125 L -0.03125 -17.0625 L 5.8125 -17.0625 L 9.75 -6.390625 L 13.671875 -17.0625 Z M 19.328125 -17.0625 "/></g></g></g><g fill="rgb(1.568604%, 42.749023%, 70.979309%)" fill-opacity="1"><g transform="translate(248.422392, 251.83705)"><g><path d="M 8.84375 0.25 C 7.351562 0.25 6.023438 -0.00390625 4.859375 -0.515625 C 3.703125 -1.023438 2.785156 -1.722656 2.109375 -2.609375 C 1.429688 -3.492188 1.054688 -4.488281 0.984375 -5.59375 L 6.140625 -5.59375 C 6.203125 -5 6.476562 -4.519531 6.96875 -4.15625 C 7.457031 -3.789062 8.0625 -3.609375 8.78125 -3.609375 C 9.425781 -3.609375 9.925781 -3.734375 10.28125 -3.984375 C 10.644531 -4.242188 10.828125 -4.578125 10.828125 -4.984375 C 10.828125 -5.472656 10.570312 -5.832031 10.0625 -6.0625 C 9.550781 -6.300781 8.722656 -6.5625 7.578125 -6.84375 C 6.359375 -7.132812 5.335938 -7.4375 4.515625 -7.75 C 3.703125 -8.0625 3 -8.5625 2.40625 -9.25 C 1.820312 -9.9375 1.53125 -10.859375 1.53125 -12.015625 C 1.53125 -12.992188 1.800781 -13.882812 2.34375 -14.6875 C 2.882812 -15.5 3.675781 -16.140625 4.71875 -16.609375 C 5.769531 -17.078125 7.019531 -17.3125 8.46875 -17.3125 C 10.613281 -17.3125 12.300781 -16.78125 13.53125 -15.71875 C 14.757812 -14.65625 15.46875 -13.25 15.65625 -11.5 L 10.828125 -11.5 C 10.742188 -12.09375 10.484375 -12.5625 10.046875 -12.90625 C 9.609375 -13.25 9.03125 -13.421875 8.3125 -13.421875 C 7.707031 -13.421875 7.238281 -13.300781 6.90625 -13.0625 C 6.582031 -12.832031 6.421875 -12.515625 6.421875 -12.109375 C 6.421875 -11.617188 6.679688 -11.25 7.203125 -11 C 7.722656 -10.757812 8.53125 -10.519531 9.625 -10.28125 C 10.894531 -9.945312 11.925781 -9.625 12.71875 -9.3125 C 13.507812 -9 14.207031 -8.488281 14.8125 -7.78125 C 15.414062 -7.082031 15.726562 -6.140625 15.75 -4.953125 C 15.75 -3.953125 15.46875 -3.054688 14.90625 -2.265625 C 14.34375 -1.484375 13.535156 -0.867188 12.484375 -0.421875 C 11.441406 0.0234375 10.226562 0.25 8.84375 0.25 Z M 8.84375 0.25 "/></g></g></g></svg>